<?xml version="1.0" encoding="UTF-8"?>
<svg xmlns="http://www.w3.org/2000/svg" width="124" height="58" viewBox="0 0 124 58" fill="none">
  <g clip-path="url(#clip0_34_2693)">
    <mask id="mask0_34_2693" style="mask-type:luminance" maskUnits="userSpaceOnUse" x="-149" y="-116" width="422" height="290">
      <path d="M272.282 -116H-148.606V174H272.282V-116Z" fill="white"></path>
    </mask>
    <g mask="url(#mask0_34_2693)">
      <path d="M48.9816 22.8778C48.4366 20.895 47.5846 19.0089 46.4562 17.2872C44.6294 14.4803 42.1258 12.173 39.1737 10.5754C36.2215 8.97794 32.9146 8.14106 29.5543 8.14106C26.194 8.14106 22.8872 8.97794 19.935 10.5754C16.9829 12.173 14.4793 14.4803 12.6525 17.2872C11.5217 19.0085 10.6675 20.8946 10.1207 22.8778C9.16095 26.3579 9.16095 30.031 10.1207 33.5111C10.6674 35.4943 11.5216 37.3805 12.6525 39.1017C14.4801 41.9065 16.9836 44.2119 19.935 45.808C22.8865 47.4041 26.1921 48.2402 29.5511 48.2402C32.9101 48.2402 36.2158 47.4041 39.1672 45.808C42.1186 44.2119 44.6221 41.9065 46.4497 39.1017C48.0013 36.7267 49.0293 34.0513 49.4657 31.2519C49.9021 28.4526 49.7371 25.5929 48.9816 22.8617M43.6881 34.5164C42.4597 37.2239 40.4726 39.5211 37.965 41.1325C35.4574 42.7439 32.536 43.6011 29.5511 43.6011C26.5663 43.6011 23.6448 42.7439 21.1372 41.1325C18.6297 39.5211 16.6425 37.2239 15.4141 34.5164C13.9325 31.2302 13.6532 27.5316 14.6245 24.0618C15.5958 20.5921 17.7566 17.5701 20.7321 15.5198C23.7077 13.4695 27.3104 12.5202 30.9155 12.8365C34.5206 13.1529 37.9008 14.7149 40.4699 17.2518C41.8232 18.5851 42.9204 20.1532 43.7075 21.8789C44.6084 23.8688 45.0743 26.0264 45.0743 28.209C45.0743 30.3915 44.6084 32.5491 43.7075 34.539" fill="#FFA700"></path>
      <path d="M45.0577 28.2106C45.0594 30.3931 44.5925 32.5507 43.6882 34.539H45.553C46.7688 34.5389 47.9589 34.1911 48.9816 33.5369C49.946 30.0509 49.946 26.3702 48.9816 22.8842C47.9589 22.23 46.7688 21.8822 45.553 21.8821H43.6882C44.5931 23.8702 45.06 26.028 45.0577 28.2106ZM10.124 33.5369C10.6717 35.5187 11.5258 37.4037 12.6558 39.1242C14.4834 41.9291 16.9869 44.2345 19.9383 45.8305C22.8898 47.4266 26.1954 48.2627 29.5544 48.2627C32.9134 48.2627 36.2191 47.4266 39.1705 45.8305C42.1219 44.2345 44.6254 41.9291 46.4531 39.1242C48.5759 35.8758 49.7059 32.084 49.7059 28.209C49.7059 24.3339 48.5759 20.5421 46.4531 17.2937C44.6262 14.4867 42.1227 12.1794 39.1705 10.5819C36.2184 8.98438 32.9115 8.1475 29.5512 8.1475C26.1909 8.1475 22.884 8.98438 19.9318 10.5819C16.9797 12.1794 14.4762 14.4867 12.6493 17.2937C12.9462 17.2642 13.2445 17.2502 13.5429 17.2518H18.6356C20.9811 14.9462 24.0049 13.4461 27.2667 12.97C30.5285 12.4938 33.8578 13.0666 36.7697 14.6048C39.6816 16.143 42.0241 18.5663 43.4558 21.5217C44.8876 24.4771 45.3339 27.8103 44.7297 31.0357C44.1255 34.2611 42.5024 37.2103 40.0968 39.4538C37.6912 41.6972 34.6288 43.1176 31.3556 43.5082C28.0824 43.8988 24.7693 43.2391 21.8991 41.6253C19.0288 40.0114 16.7512 37.5276 15.398 34.5358H13.5267C12.3114 34.5393 11.1214 34.1911 10.1013 33.5337M45.035 28.2073C45.0368 30.3898 44.5698 32.5475 43.6655 34.5358H45.5303C46.7461 34.5357 47.9362 34.1879 48.959 33.5337C49.9234 30.0476 49.9234 26.367 48.959 22.881C47.9362 22.2268 46.7461 21.879 45.5303 21.8789H43.6655C44.5704 23.867 45.0374 26.0248 45.035 28.2073Z" fill="#FFA700"></path>
    </g>
    <mask id="mask1_34_2693" style="mask-type:luminance" maskUnits="userSpaceOnUse" x="9" y="17" width="10" height="18">
      <path d="M13.546 17.255C13.2476 17.2534 12.9494 17.2674 12.6524 17.2969C11.1005 19.6717 10.0723 22.3471 9.63591 25.1466C9.19948 27.946 9.3647 30.8057 10.1206 33.5369C11.1407 34.1944 12.3308 34.5425 13.546 34.539H15.4174C14.1245 31.6727 13.7417 28.4818 14.3203 25.3931C14.8989 22.3044 16.4112 19.4651 18.655 17.255H13.546Z" fill="white"></path>
    </mask>
    <g mask="url(#mask1_34_2693)">
      <path d="M18.6388 17.255H9.39868V34.539H18.6388V17.255Z" fill="url(#paint0_linear_34_2693)"></path>
    </g>
    <path d="M40.4699 39.1661H45.5529C45.8535 39.1679 46.1539 39.1539 46.453 39.1242C49.1991 38.8892 51.7566 37.6375 53.6202 35.6164C55.4838 33.5954 56.5178 30.9521 56.5178 28.209C56.5178 25.4658 55.4838 22.8225 53.6202 20.8015C51.7566 18.7804 49.1991 17.5287 46.453 17.2937C46.1528 17.2642 45.8513 17.2502 45.5497 17.2518H40.4699C41.8239 18.5845 42.9212 20.1527 43.7075 21.8789H45.5724C47.2588 21.8789 48.8761 22.5456 50.0686 23.7325C51.2611 24.9193 51.931 26.5289 51.931 28.2073C51.931 29.8858 51.2611 31.4954 50.0686 32.6822C48.8761 33.869 47.2588 34.5358 45.5724 34.5358H43.7075C42.9238 36.2634 41.8262 37.8321 40.4699 39.1629M2.56087 28.2073C2.56218 30.957 3.60233 33.6056 5.4748 35.6273C7.34727 37.6491 9.91515 38.8962 12.6687 39.121C12.9656 39.1505 13.2638 39.1645 13.5622 39.1629H33.2857C33.7081 38.4856 33.9323 37.7045 33.9332 36.9073C33.9344 36.0614 33.6868 35.2337 33.2209 34.5261H13.546C12.3308 34.5294 11.1408 34.1813 10.1207 33.524C9.22301 32.9518 8.48439 32.164 7.9728 31.2333C7.46121 30.3025 7.19307 29.2586 7.19307 28.1977C7.19307 27.1367 7.46121 26.0928 7.9728 25.1621C8.48439 24.2313 9.22301 23.4436 10.1207 22.8713C10.6687 20.8896 11.5228 19.0047 12.6525 17.284C9.89896 17.5088 7.33108 18.7559 5.4586 20.7777C3.58613 22.7994 2.54599 25.448 2.54468 28.1977" fill="#FFA700"></path>
    <path d="M25.2014 36.9202C25.2014 38.0688 25.6599 39.1703 26.4759 39.9825C27.2919 40.7946 28.3987 41.2509 29.5527 41.2509C30.7068 41.2509 31.8136 40.7946 32.6296 39.9825C33.4456 39.1703 33.9041 38.0688 33.9041 36.9202C33.9041 35.7717 33.4456 34.6701 32.6296 33.858C31.8136 33.0458 30.7068 32.5896 29.5527 32.5896C28.3987 32.5896 27.2919 33.0458 26.4759 33.858C25.6599 34.6701 25.2014 35.7717 25.2014 36.9202Z" fill="#FFA700"></path>
    <path d="M64.8231 14.9511V43.5709C64.8231 45.0596 64.4594 46.1186 63.732 46.748C63.0046 47.3774 61.8337 47.6535 60.2192 47.5761V55.8186C64.7411 56.0892 68.078 55.23 70.2299 53.2408C72.3818 51.2516 73.4545 48.0294 73.4481 43.5741V14.9511H64.8231Z" fill="white"></path>
    <path d="M74.3159 7.28223C74.3211 7.9665 74.186 8.64464 73.9187 9.27514C73.6515 9.90565 73.2579 10.4753 72.7618 10.9491C72.291 11.4297 71.7265 11.8096 71.103 12.0656C70.4795 12.3216 69.8101 12.4482 69.1357 12.4378C68.4524 12.4487 67.7739 12.3227 67.1405 12.0675C66.5071 11.8123 65.9317 11.4329 65.4484 10.952C64.9652 10.4711 64.5841 9.89839 64.3276 9.26797C64.0712 8.63756 63.9446 7.96227 63.9556 7.28223C63.944 6.61149 64.0702 5.94546 64.3262 5.32492C64.5823 4.70438 64.963 4.14238 65.4449 3.67333C65.9213 3.18052 66.4938 2.78971 67.1274 2.52487C67.7609 2.26002 68.4421 2.12672 69.1293 2.13311C70.4935 2.16347 71.7935 2.71639 72.7584 3.67675C73.7233 4.6371 74.2789 5.93086 74.3094 7.28867" fill="#FFA700"></path>
    <path d="M103.36 40.0232C100.446 42.9232 96.8419 44.3732 92.5467 44.3732C88.2515 44.3732 84.647 42.9232 81.7331 40.0232C78.7804 37.0846 77.3041 33.4972 77.3041 29.261C77.2683 27.2703 77.6429 25.2934 78.4047 23.4524C79.1664 21.6113 80.2992 19.9452 81.7331 18.5568C84.6858 15.6181 88.2903 14.1488 92.5467 14.1488C96.8031 14.1488 100.408 15.6181 103.36 18.5568C104.794 19.9453 105.927 21.6114 106.688 23.4525C107.45 25.2935 107.825 27.2703 107.789 29.261C107.789 33.4972 106.313 37.0846 103.36 40.0232ZM85.9323 29.261C85.9323 31.2459 86.5647 32.8678 87.8295 34.1266C89.0964 35.3405 90.7865 36.0186 92.5451 36.0186C94.3036 36.0186 95.9938 35.3405 97.2606 34.1266C98.5255 32.8678 99.1579 31.2459 99.1579 29.261C99.1579 27.2761 98.5255 25.6543 97.2606 24.3955C95.9938 23.1816 94.3036 22.5034 92.5451 22.5034C90.7865 22.5034 89.0964 23.1816 87.8295 24.3955C86.5647 25.6543 85.9323 27.2761 85.9323 29.261Z" fill="white"></path>
    <path d="M120.27 14.9511H111.645V43.5709H120.27V14.9511Z" fill="white"></path>
    <path d="M121.132 7.28222C121.138 7.96669 121.004 8.64522 120.736 9.27592C120.469 9.90661 120.075 10.4761 119.578 10.9491C119.107 11.4297 118.542 11.8096 117.919 12.0656C117.295 12.3216 116.626 12.4482 115.951 12.4378C115.269 12.4469 114.591 12.3197 113.958 12.0639C113.326 11.808 112.751 11.4286 112.268 10.948C111.785 10.4675 111.404 9.89549 111.147 9.26588C110.89 8.63627 110.762 7.96177 110.771 7.28222C110.759 6.61083 110.886 5.94413 111.143 5.32337C111.4 4.70262 111.783 4.14101 112.267 3.67332C112.742 3.18008 113.313 2.78893 113.946 2.52402C114.578 2.25911 115.259 2.12606 115.945 2.1331C117.309 2.16346 118.609 2.71638 119.574 3.67673C120.539 4.63709 121.095 5.93085 121.125 7.28866" fill="#FFA700"></path>
  </g>
  <defs>
    <linearGradient id="paint0_linear_34_2693" x1="13.5881" y1="34.539" x2="13.5881" y2="17.255" gradientUnits="userSpaceOnUse">
      <stop stop-color="#82250C"></stop>
      <stop offset="0.02" stop-color="#8D300B"></stop>
      <stop offset="0.06" stop-color="#AB5008"></stop>
      <stop offset="0.11" stop-color="#C66B06"></stop>
      <stop offset="0.16" stop-color="#DB8103"></stop>
      <stop offset="0.22" stop-color="#EB9202"></stop>
      <stop offset="0.3" stop-color="#F79E01"></stop>
      <stop offset="0.4" stop-color="#FDA500"></stop>
      <stop offset="0.69" stop-color="#FFA700"></stop>
      <stop offset="1" stop-color="#FFA700"></stop>
    </linearGradient>
    <clipPath id="clip0_34_2693">
      <rect width="124" height="58" fill="white"></rect>
    </clipPath>
  </defs>
</svg>
