<?xml version="1.0" encoding="UTF-8"?>
<svg xmlns="http://www.w3.org/2000/svg" viewBox="0 0 58 58" fill="none">
  <g clip-path="url(#fc_clip)">
    <path d="M48.9816 22.8778C48.4366 20.895 47.5846 19.0089 46.4562 17.2872C44.6294 14.4803 42.1258 12.173 39.1737 10.5754C36.2215 8.97794 32.9146 8.14106 29.5543 8.14106C26.194 8.14106 22.8872 8.97794 19.935 10.5754C16.9829 12.173 14.4793 14.4803 12.6525 17.2872C11.5217 19.0085 10.6675 20.8946 10.1207 22.8778C9.16095 26.3579 9.16095 30.031 10.1207 33.5111C10.6674 35.4943 11.5216 37.3805 12.6525 39.1017C14.4801 41.9065 16.9836 44.2119 19.935 45.808C22.8865 47.4041 26.1921 48.2402 29.5511 48.2402C32.9101 48.2402 36.2158 47.4041 39.1672 45.808C42.1186 44.2119 44.6221 41.9065 46.4497 39.1017C48.0013 36.7267 49.0293 34.0513 49.4657 31.2519C49.9021 28.4526 49.7371 25.5929 48.9816 22.8617M43.6881 34.5164C42.4597 37.2239 40.4726 39.5211 37.965 41.1325C35.4574 42.7439 32.536 43.6011 29.5511 43.6011C26.5663 43.6011 23.6448 42.7439 21.1372 41.1325C18.6297 39.5211 16.6425 37.2239 15.4141 34.5164C13.9325 31.2302 13.6532 27.5316 14.6245 24.0618C15.5958 20.5921 17.7566 17.5701 20.7321 15.5198C23.7077 13.4695 27.3104 12.5202 30.9155 12.8365C34.5206 13.1529 37.9008 14.7149 40.4699 17.2518C41.8232 18.5851 42.9204 20.1532 43.7075 21.8789C44.6084 23.8688 45.0743 26.0264 45.0743 28.209C45.0743 30.3915 44.6084 32.5491 43.7075 34.539" fill="#FFA700"/>
    <path d="M2.56087 28.2073C2.56218 30.957 3.60233 33.6056 5.4748 35.6273C7.34727 37.6491 9.91515 38.8962 12.6687 39.121C12.9656 39.1505 13.2638 39.1645 13.5622 39.1629H33.2857C33.7081 38.4856 33.9323 37.7045 33.9332 36.9073C33.9344 36.0614 33.6868 35.2337 33.2209 34.5261H13.546C12.3308 34.5294 11.1408 34.1813 10.1207 33.524C9.22301 32.9518 8.48439 32.164 7.9728 31.2333C7.46121 30.3025 7.19307 29.2586 7.19307 28.1977C7.19307 27.1367 7.46121 26.0928 7.9728 25.1621C8.48439 24.2313 9.22301 23.4436 10.1207 22.8713C10.6687 20.8896 11.5228 19.0047 12.6525 17.284C9.89896 17.5088 7.33108 18.7559 5.4586 20.7777C3.58613 22.7994 2.54599 25.448 2.54468 28.1977" fill="#FFA700"/>
    <path d="M25.2014 36.9202C25.2014 38.0688 25.6599 39.1703 26.4759 39.9825C27.2919 40.7946 28.3987 41.2509 29.5527 41.2509C30.7068 41.2509 31.8136 40.7946 32.6296 39.9825C33.4456 39.1703 33.9041 38.0688 33.9041 36.9202C33.9041 35.7717 33.4456 34.6701 32.6296 33.858C31.8136 33.0458 30.7068 32.5896 29.5527 32.5896C28.3987 32.5896 27.2919 33.0458 26.4759 33.858C25.6599 34.6701 25.2014 35.7717 25.2014 36.9202Z" fill="#FFA700"/>
  </g>
  <defs>
    <clipPath id="fc_clip"><rect width="58" height="58" fill="white"/></clipPath>
  </defs>
</svg>
